<mxfile host="app.diagrams.net" modified="2020-07-20T23:33:53.773Z" agent="5.0 (Linux; Android 8.0.0; WAS-LX2J) AppleWebKit/537.36 (KHTML, like Gecko) Chrome/84.0.4147.89 Mobile Safari/537.36" etag="qVhdUgAiSFirMIFJ8O-D" version="13.4.9" type="github">
  <diagram id="C5RBs43oDa-KdzZeNtuy" name="Page-1">
    <mxGraphModel dx="1153" dy="399" grid="1" gridSize="10" guides="1" tooltips="1" connect="1" arrows="1" fold="1" page="1" pageScale="1" pageWidth="827" pageHeight="1169" math="0" shadow="0">
      <root>
        <mxCell id="WIyWlLk6GJQsqaUBKTNV-0" />
        <mxCell id="WIyWlLk6GJQsqaUBKTNV-1" parent="WIyWlLk6GJQsqaUBKTNV-0" />
        <mxCell id="WIyWlLk6GJQsqaUBKTNV-2" value="" style="rounded=0;html=1;jettySize=auto;orthogonalLoop=1;fontSize=11;endArrow=block;endFill=0;endSize=8;strokeWidth=1;shadow=0;labelBackgroundColor=none;edgeStyle=orthogonalEdgeStyle;" parent="WIyWlLk6GJQsqaUBKTNV-1" source="WIyWlLk6GJQsqaUBKTNV-3" edge="1">
          <mxGeometry relative="1" as="geometry">
            <mxPoint x="220" y="170" as="targetPoint" />
          </mxGeometry>
        </mxCell>
        <mxCell id="WIyWlLk6GJQsqaUBKTNV-3" value="MainEntityから&lt;span class=&quot;pl-smi&quot; style=&quot;text-align: left ; color: rgb(36 , 41 , 46) ; text-transform: none ; text-indent: 0px ; letter-spacing: normal ; font-family: , &amp;#34;consolas&amp;#34; , &amp;#34;liberation mono&amp;#34; , &amp;#34;menlo&amp;#34; , monospace ; font-size: 12px ; font-style: normal ; font-variant: normal ; font-weight: 400 ; text-decoration: none ; word-spacing: 0px ; box-sizing: border-box&quot;&gt;gitCommandEntityListを取得&lt;/span&gt;" style="rounded=1;whiteSpace=wrap;html=1;fontSize=12;glass=0;strokeWidth=1;shadow=0;" parent="WIyWlLk6GJQsqaUBKTNV-1" vertex="1">
          <mxGeometry x="160" y="60" width="120" height="60" as="geometry" />
        </mxCell>
        <mxCell id="eOAtrBW3Mt4_9_wZZWKc-8" style="edgeStyle=orthogonalEdgeStyle;rounded=0;orthogonalLoop=1;jettySize=auto;html=1;entryX=0.5;entryY=0;entryDx=0;entryDy=0;" parent="WIyWlLk6GJQsqaUBKTNV-1" source="eOAtrBW3Mt4_9_wZZWKc-3" target="eOAtrBW3Mt4_9_wZZWKc-6" edge="1">
          <mxGeometry relative="1" as="geometry" />
        </mxCell>
        <mxCell id="eOAtrBW3Mt4_9_wZZWKc-3" value="&lt;span class=&quot;pl-smi&quot; style=&quot;text-align: left ; color: rgb(36 , 41 , 46) ; text-transform: none ; text-indent: 0px ; letter-spacing: normal ; font-family: , &amp;#34;consolas&amp;#34; , &amp;#34;liberation mono&amp;#34; , &amp;#34;menlo&amp;#34; , monospace ; font-size: 12px ; font-style: normal ; font-variant: normal ; font-weight: 400 ; text-decoration: none ; word-spacing: 0px ; box-sizing: border-box&quot;&gt;gitCommandEntityList&lt;/span&gt;インスタンスを読み込み（コマンドのみか、そろったやつか）" style="rounded=1;whiteSpace=wrap;html=1;" parent="WIyWlLk6GJQsqaUBKTNV-1" vertex="1">
          <mxGeometry x="160" y="170" width="120" height="90" as="geometry" />
        </mxCell>
        <mxCell id="eOAtrBW3Mt4_9_wZZWKc-7" value="" style="edgeStyle=orthogonalEdgeStyle;rounded=0;orthogonalLoop=1;jettySize=auto;html=1;" parent="WIyWlLk6GJQsqaUBKTNV-1" source="eOAtrBW3Mt4_9_wZZWKc-6" target="2" edge="1">
          <mxGeometry relative="1" as="geometry">
            <Array as="points">
              <mxPoint x="220" y="590" />
            </Array>
          </mxGeometry>
        </mxCell>
        <mxCell id="aSt6UWVed7p7qFlXKZXF-3" value="" style="edgeStyle=orthogonalEdgeStyle;rounded=0;orthogonalLoop=1;jettySize=auto;html=1;" parent="WIyWlLk6GJQsqaUBKTNV-1" source="eOAtrBW3Mt4_9_wZZWKc-6" target="aSt6UWVed7p7qFlXKZXF-2" edge="1">
          <mxGeometry relative="1" as="geometry" />
        </mxCell>
        <mxCell id="eOAtrBW3Mt4_9_wZZWKc-23" style="edgeStyle=orthogonalEdgeStyle;rounded=0;orthogonalLoop=1;jettySize=auto;html=1;" parent="WIyWlLk6GJQsqaUBKTNV-1" edge="1">
          <mxGeometry relative="1" as="geometry">
            <mxPoint x="220" y="610" as="targetPoint" />
            <Array as="points">
              <mxPoint x="220" y="590" />
            </Array>
            <mxPoint x="470" y="590" as="sourcePoint" />
          </mxGeometry>
        </mxCell>
        <mxCell id="2" value="公式helpのスクレイピングで取得できなかったやつは、個別編集する。（sysnopsisが取れなかったり、オプションじゃないやつがオプションに入ってたり）" style="whiteSpace=wrap;html=1;rounded=1;" parent="WIyWlLk6GJQsqaUBKTNV-1" vertex="1">
          <mxGeometry x="570" y="490" width="220" height="170" as="geometry" />
        </mxCell>
        <mxCell id="eOAtrBW3Mt4_9_wZZWKc-9" value="&lt;span class=&quot;pl-en&quot; style=&quot;color: rgb(111, 66, 193); text-transform: none; text-indent: 0px; letter-spacing: normal; font-size: 12px; font-style: normal; font-variant: normal; font-weight: 400; text-decoration: none; word-spacing: 0px; box-sizing: border-box;&quot;&gt;List&lt;/span&gt;&lt;span style=&quot;color: rgb(36, 41, 46); text-transform: none; text-indent: 0px; letter-spacing: normal; text-decoration: none; word-spacing: 0px; display: inline; float: none; overflow-wrap: normal; background-color: rgb(255, 255, 255);&quot;&gt;&amp;lt;&lt;/span&gt;&lt;span class=&quot;pl-en&quot; style=&quot;color: rgb(111, 66, 193); text-transform: none; text-indent: 0px; letter-spacing: normal; font-size: 12px; font-style: normal; font-variant: normal; font-weight: 400; text-decoration: none; word-spacing: 0px; box-sizing: border-box;&quot;&gt;GitCommandEntity&lt;/span&gt;&lt;span style=&quot;color: rgb(36, 41, 46); text-transform: none; text-indent: 0px; letter-spacing: normal; text-decoration: none; word-spacing: 0px; display: inline; float: none; overflow-wrap: normal; background-color: rgb(255, 255, 255);&quot;&gt;&amp;gt;&lt;/span&gt;" style="rounded=0;whiteSpace=wrap;html=1;align=left;horizontal=1;verticalAlign=top;" parent="WIyWlLk6GJQsqaUBKTNV-1" vertex="1">
          <mxGeometry x="430" y="190" width="360" height="30" as="geometry" />
        </mxCell>
        <mxCell id="eOAtrBW3Mt4_9_wZZWKc-10" value="&lt;div&gt;&lt;span style=&#39;color: rgb(36, 41, 46); text-transform: none; text-indent: 0px; letter-spacing: normal; font-family: &quot;helvetica&quot;; font-size: 12px; font-style: normal; font-variant: normal; font-weight: 400; text-decoration: none; word-spacing: 0px; display: inline; float: none; overflow-wrap: normal; background-color: rgb(255, 255, 255);&#39;&gt;&lt;/span&gt;&lt;span class=&quot;pl-en&quot; style=&#39;color: rgb(111 , 66 , 193) ; text-transform: none ; text-indent: 0px ; letter-spacing: normal ; font-family: &quot;helvetica&quot; ; font-size: 12px ; font-style: normal ; font-variant: normal ; font-weight: 400 ; text-decoration: none ; word-spacing: 0px ; box-sizing: border-box&#39;&gt;GitCommandEntity&lt;/span&gt;&lt;span style=&#39;color: rgb(36, 41, 46); text-transform: none; text-indent: 0px; letter-spacing: normal; font-family: &quot;helvetica&quot;; font-size: 12px; font-style: normal; font-variant: normal; font-weight: 400; text-decoration: none; word-spacing: 0px; display: inline; float: none; overflow-wrap: normal; background-color: rgb(255, 255, 255);&#39;&gt;&lt;/span&gt;&lt;/div&gt;" style="rounded=0;whiteSpace=wrap;html=1;align=left;verticalAlign=top;" parent="WIyWlLk6GJQsqaUBKTNV-1" vertex="1">
          <mxGeometry x="450" y="220" width="340" height="30" as="geometry" />
        </mxCell>
        <mxCell id="eOAtrBW3Mt4_9_wZZWKc-12" value="&lt;span class=&quot;pl-smi&quot; style=&quot;text-align: left ; color: rgb(36 , 41 , 46) ; text-transform: none ; text-indent: 0px ; letter-spacing: normal ; font-family: &amp;#34;helvetica&amp;#34; ; font-size: 12px ; font-style: normal ; font-variant: normal ; font-weight: 400 ; text-decoration: none ; word-spacing: 0px ; box-sizing: border-box&quot;&gt;gitCommandEntityList&lt;/span&gt;" style="text;html=1;strokeColor=none;fillColor=none;align=center;verticalAlign=middle;whiteSpace=wrap;rounded=0;" parent="WIyWlLk6GJQsqaUBKTNV-1" vertex="1">
          <mxGeometry x="540" y="160" width="140" height="20" as="geometry" />
        </mxCell>
        <mxCell id="eOAtrBW3Mt4_9_wZZWKc-17" value="string command" style="rounded=0;whiteSpace=wrap;html=1;align=left;" parent="WIyWlLk6GJQsqaUBKTNV-1" vertex="1">
          <mxGeometry x="470" y="250" width="320" height="30" as="geometry" />
        </mxCell>
        <mxCell id="eOAtrBW3Mt4_9_wZZWKc-18" value="List&amp;lt;string&amp;gt; synopsis" style="rounded=0;whiteSpace=wrap;html=1;align=left;" parent="WIyWlLk6GJQsqaUBKTNV-1" vertex="1">
          <mxGeometry x="470" y="280" width="320" height="30" as="geometry" />
        </mxCell>
        <mxCell id="eOAtrBW3Mt4_9_wZZWKc-19" value="List&amp;lt;string&amp;gt; options" style="rounded=0;whiteSpace=wrap;html=1;align=left;" parent="WIyWlLk6GJQsqaUBKTNV-1" vertex="1">
          <mxGeometry x="470" y="340" width="320" height="30" as="geometry" />
        </mxCell>
        <mxCell id="eOAtrBW3Mt4_9_wZZWKc-20" value="string synopsis" style="rounded=0;whiteSpace=wrap;html=1;align=left;" parent="WIyWlLk6GJQsqaUBKTNV-1" vertex="1">
          <mxGeometry x="490" y="310" width="300" height="30" as="geometry" />
        </mxCell>
        <mxCell id="eOAtrBW3Mt4_9_wZZWKc-21" value="string optsion" style="rounded=0;whiteSpace=wrap;html=1;align=left;" parent="WIyWlLk6GJQsqaUBKTNV-1" vertex="1">
          <mxGeometry x="490" y="370" width="300" height="30" as="geometry" />
        </mxCell>
        <mxCell id="eOAtrBW3Mt4_9_wZZWKc-24" value="コマンドごとの個別解析の呼び出し" style="text;html=1;strokeColor=none;fillColor=none;align=center;verticalAlign=middle;whiteSpace=wrap;rounded=0;" parent="WIyWlLk6GJQsqaUBKTNV-1" vertex="1">
          <mxGeometry x="344" y="500" width="140" height="20" as="geometry" />
        </mxCell>
        <mxCell id="eOAtrBW3Mt4_9_wZZWKc-25" value="解析結果の返却" style="text;html=1;strokeColor=none;fillColor=none;align=center;verticalAlign=middle;whiteSpace=wrap;rounded=0;" parent="WIyWlLk6GJQsqaUBKTNV-1" vertex="1">
          <mxGeometry x="350" y="540" width="140" height="40" as="geometry" />
        </mxCell>
        <mxCell id="eOAtrBW3Mt4_9_wZZWKc-26" value="前提：最初の読み込みのとこまでは基本的に引数でgitcommandListを渡して、それを返却する。" style="text;html=1;strokeColor=none;fillColor=none;align=center;verticalAlign=middle;whiteSpace=wrap;rounded=0;" parent="WIyWlLk6GJQsqaUBKTNV-1" vertex="1">
          <mxGeometry x="370" y="20" width="300" height="80" as="geometry" />
        </mxCell>
        <mxCell id="aSt6UWVed7p7qFlXKZXF-2" value="エンテティ書き出し&lt;br&gt;そのまま、コマンドのみ" style="rounded=1;whiteSpace=wrap;html=1;" parent="WIyWlLk6GJQsqaUBKTNV-1" vertex="1">
          <mxGeometry x="-10" y="370" width="100" height="140" as="geometry" />
        </mxCell>
        <mxCell id="aSt6UWVed7p7qFlXKZXF-7" value="" style="edgeStyle=orthogonalEdgeStyle;rounded=0;orthogonalLoop=1;jettySize=auto;html=1;" parent="WIyWlLk6GJQsqaUBKTNV-1" source="aSt6UWVed7p7qFlXKZXF-4" target="aSt6UWVed7p7qFlXKZXF-6" edge="1">
          <mxGeometry relative="1" as="geometry" />
        </mxCell>
        <mxCell id="aSt6UWVed7p7qFlXKZXF-4" value="エンテティ書き出し&lt;br&gt;そのまま、コマンドのみ、メンンエンティィに保存" style="rounded=1;whiteSpace=wrap;html=1;" parent="WIyWlLk6GJQsqaUBKTNV-1" vertex="1">
          <mxGeometry x="170" y="610" width="100" height="140" as="geometry" />
        </mxCell>
        <mxCell id="zEEIrptdK6lAK0V_8D_--3" value="" style="edgeStyle=orthogonalEdgeStyle;rounded=0;orthogonalLoop=1;jettySize=auto;html=1;" parent="WIyWlLk6GJQsqaUBKTNV-1" source="aSt6UWVed7p7qFlXKZXF-6" target="zEEIrptdK6lAK0V_8D_--2" edge="1">
          <mxGeometry relative="1" as="geometry" />
        </mxCell>
        <mxCell id="aSt6UWVed7p7qFlXKZXF-6" value="ParsedEntityをもとに、共通的な解析(synopsisのルールに従って解析する)" style="rounded=1;whiteSpace=wrap;html=1;" parent="WIyWlLk6GJQsqaUBKTNV-1" vertex="1">
          <mxGeometry x="170" y="830" width="100" height="140" as="geometry" />
        </mxCell>
        <mxCell id="aSt6UWVed7p7qFlXKZXF-10" value="&lt;span class=&quot;pl-en&quot; style=&quot;color: rgb(111 , 66 , 193) ; text-transform: none ; text-indent: 0px ; letter-spacing: normal ; font-size: 12px ; font-style: normal ; font-variant: normal ; font-weight: 400 ; text-decoration: none ; word-spacing: 0px ; box-sizing: border-box&quot;&gt;List&lt;/span&gt;&lt;span style=&quot;color: rgb(36 , 41 , 46) ; text-transform: none ; text-indent: 0px ; letter-spacing: normal ; text-decoration: none ; word-spacing: 0px ; display: inline ; float: none ; overflow-wrap: normal ; background-color: rgb(255 , 255 , 255)&quot;&gt;&amp;lt;&lt;/span&gt;&lt;span style=&quot;text-transform: none ; text-indent: 0px ; letter-spacing: normal ; text-decoration: none ; word-spacing: 0px ; display: inline ; float: none ; overflow-wrap: normal ; background-color: rgb(248 , 249 , 250)&quot;&gt;&lt;font color=&quot;#6f42c1&quot;&gt;ParsedEntity&lt;/font&gt;&lt;/span&gt;&lt;span style=&quot;color: rgb(36 , 41 , 46) ; text-transform: none ; text-indent: 0px ; letter-spacing: normal ; text-decoration: none ; word-spacing: 0px ; display: inline ; float: none ; overflow-wrap: normal ; background-color: rgb(255 , 255 , 255)&quot;&gt;&amp;gt;&lt;/span&gt;" style="rounded=0;whiteSpace=wrap;html=1;align=left;horizontal=1;verticalAlign=top;" parent="WIyWlLk6GJQsqaUBKTNV-1" vertex="1">
          <mxGeometry x="440" y="670" width="360" height="30" as="geometry" />
        </mxCell>
        <mxCell id="aSt6UWVed7p7qFlXKZXF-12" value="&lt;div&gt;&lt;span style=&quot;color: rgb(36 , 41 , 46) ; text-transform: none ; text-indent: 0px ; letter-spacing: normal ; font-family: &amp;#34;helvetica&amp;#34; ; font-size: 12px ; font-style: normal ; font-variant: normal ; font-weight: 400 ; text-decoration: none ; word-spacing: 0px ; display: inline ; float: none ; overflow-wrap: normal ; background-color: rgb(255 , 255 , 255)&quot;&gt;&lt;/span&gt;&lt;span class=&quot;pl-en&quot; style=&quot;color: rgb(111 , 66 , 193) ; text-transform: none ; text-indent: 0px ; letter-spacing: normal ; font-family: &amp;#34;helvetica&amp;#34; ; font-size: 12px ; font-style: normal ; font-variant: normal ; font-weight: 400 ; text-decoration: none ; word-spacing: 0px ; box-sizing: border-box&quot;&gt;ParsedEntity&lt;/span&gt;&lt;span style=&quot;color: rgb(36 , 41 , 46) ; text-transform: none ; text-indent: 0px ; letter-spacing: normal ; font-family: &amp;#34;helvetica&amp;#34; ; font-size: 12px ; font-style: normal ; font-variant: normal ; font-weight: 400 ; text-decoration: none ; word-spacing: 0px ; display: inline ; float: none ; overflow-wrap: normal ; background-color: rgb(255 , 255 , 255)&quot;&gt;&lt;/span&gt;&lt;/div&gt;" style="rounded=0;whiteSpace=wrap;html=1;align=left;verticalAlign=top;" parent="WIyWlLk6GJQsqaUBKTNV-1" vertex="1">
          <mxGeometry x="460" y="700" width="340" height="30" as="geometry" />
        </mxCell>
        <mxCell id="aSt6UWVed7p7qFlXKZXF-13" value="string command" style="rounded=0;whiteSpace=wrap;html=1;align=left;" parent="WIyWlLk6GJQsqaUBKTNV-1" vertex="1">
          <mxGeometry x="480" y="730" width="320" height="30" as="geometry" />
        </mxCell>
        <mxCell id="aSt6UWVed7p7qFlXKZXF-14" value="String option" style="rounded=0;whiteSpace=wrap;html=1;align=left;" parent="WIyWlLk6GJQsqaUBKTNV-1" vertex="1">
          <mxGeometry x="480" y="760" width="320" height="30" as="geometry" />
        </mxCell>
        <mxCell id="aSt6UWVed7p7qFlXKZXF-15" value="bool any_metadata" style="rounded=0;whiteSpace=wrap;html=1;align=left;" parent="WIyWlLk6GJQsqaUBKTNV-1" vertex="1">
          <mxGeometry x="480" y="790" width="320" height="30" as="geometry" />
        </mxCell>
        <mxCell id="aSt6UWVed7p7qFlXKZXF-17" value="........." style="rounded=0;whiteSpace=wrap;html=1;align=left;" parent="WIyWlLk6GJQsqaUBKTNV-1" vertex="1">
          <mxGeometry x="480" y="820" width="320" height="30" as="geometry" />
        </mxCell>
        <mxCell id="zEEIrptdK6lAK0V_8D_--2" value="オプションごとの個別解析を行う。" style="rounded=1;whiteSpace=wrap;html=1;" parent="WIyWlLk6GJQsqaUBKTNV-1" vertex="1">
          <mxGeometry x="170" y="1050" width="100" height="140" as="geometry" />
        </mxCell>
        <mxCell id="eOAtrBW3Mt4_9_wZZWKc-6" value="Gitの公式サイトから、optionsとsynopsisと説明を取得して、&lt;span class=&quot;pl-smi&quot; style=&quot;text-align: left ; color: rgb(36 , 41 , 46) ; text-transform: none ; text-indent: 0px ; letter-spacing: normal ; font-family: &amp;#34;helvetica&amp;#34; ; font-size: 12px ; font-style: normal ; font-variant: normal ; font-weight: 400 ; text-decoration: none ; word-spacing: 0px ; box-sizing: border-box&quot;&gt;gitCommandEntityListに入れる&lt;/span&gt;" style="rounded=1;whiteSpace=wrap;html=1;" parent="WIyWlLk6GJQsqaUBKTNV-1" vertex="1">
          <mxGeometry x="170" y="370" width="100" height="140" as="geometry" />
        </mxCell>
      </root>
    </mxGraphModel>
  </diagram>
</mxfile>
